<?xml version="1.0"?>
<!DOCTYPE svg PUBLIC "-//W3C//DTD SVG 1.1//EN" "http://www.w3.org/Graphics/SVG/1.1/DTD/svg11.dtd">
<svg width="1024px" height="1024px" viewBox="0 0 1024 1024" xmlns="http://www.w3.org/2000/svg" version="1.1">
<desc>UV-Map from Object: Cube_Material. Exported from Blender3D with UV Exportscript</desc>
<rect x="0" y="0" width="1024" height="1024" fill="none" stroke="blue" stroke-width="4px" />
<g style="fill:#F2DAF2; stroke:black; stroke-width:4px;">
<polygon points="221.082,360.038 46.899,360.038 46.899,185.754 221.082,185.754 " />
<polygon points="590.541,360.038 393.318,351.642 395.366,185.754 569.549,185.754 " />
<polygon points="591.667,708.403 395.366,782.131 364.954,467.558 531.763,534.221 " />
<polygon points="221.082,708.403 46.899,708.403 46.899,534.221 221.082,534.221 " />
<polygon points="395.366,782.131 221.082,708.403 221.082,534.221 364.954,467.558 " />
<polygon points="395.366,882.688 221.082,882.688 221.082,708.403 395.366,782.131 " />
<polygon points="221.082,882.688 46.899,882.688 46.899,708.403 221.082,708.403 " />
<polygon points="743.834,708.403 591.667,708.403 531.763,534.221 743.834,534.221 " />
<polygon points="743.834,882.688 569.549,882.688 591.667,708.403 743.834,708.403 " />
<polygon points="569.549,882.688 395.366,882.688 395.366,782.131 591.667,708.403 " />
<polygon points="743.834,360.038 590.541,360.038 569.549,185.754 743.834,185.754 " />
<polygon points="743.834,534.221 531.763,534.221 590.541,360.038 743.834,360.038 " />
<polygon points="531.763,534.221 364.954,467.558 393.318,351.642 590.541,360.038 " />
<polygon points="393.318,351.642 221.082,360.038 221.082,185.754 395.366,185.754 " />
<polygon points="364.954,467.558 221.082,534.221 221.082,360.038 393.318,351.642 " />
<polygon points="221.082,534.221 46.899,534.221 46.899,360.038 221.082,360.038 " />
<polygon points="923.443,716.493 784.077,890.675 993.075,890.675 " />
<polygon points="853.709,368.026 784.077,542.208 923.443,716.493 " />
<polygon points="993.075,193.741 784.077,193.741 853.709,368.026 " />
<polygon points="993.075,193.741 853.709,368.026 923.443,716.493 " />
<polygon points="993.075,193.741 923.443,716.493 993.075,890.675 " />
</g>
</svg>